<svg width="41" height="42" fill="none" xmlns="http://www.w3.org/2000/svg"><g filter="url('#filter0_dd_518_7920')"><path d="m23.352 7.09 4.465 8.933a1.712 1.712 0 0 1-1.53 2.477h-2.935m0-11.41L22.03 4.446c-.63-1.261-2.43-1.261-3.06 0l-5.787 11.577a1.712 1.712 0 0 0 1.53 2.477h2.935m5.704-11.41L20.5 9.942M17.648 18.5h5.704m-5.704 0-2.851-2.853m8.555 2.853-5.704-5.705M20.5 9.942l7.272 7.274M20.5 9.942l-2.852 2.853m-4.42 4.421 1.569-1.569m0 0 2.851-2.852" stroke="#686B6E" stroke-width="1.5" stroke-linecap="round" stroke-linejoin="round"/></g><defs><filter id="filter0_dd_518_7920" x="-1.5" y="-1" width="44" height="44" filterUnits="userSpaceOnUse" color-interpolation-filters="sRGB"><feFlood flood-opacity="0" result="BackgroundImageFix"/><feColorMatrix in="SourceAlpha" values="0 0 0 0 0 0 0 0 0 0 0 0 0 0 0 0 0 0 127 0" result="hardAlpha"/><feMorphology radius="4" in="SourceAlpha" result="effect1_dropShadow_518_7920"/><feOffset dy="4"/><feGaussianBlur stdDeviation="3"/><feColorMatrix values="0 0 0 0 0.407843 0 0 0 0 0.419608 0 0 0 0 0.431373 0 0 0 0.16 0"/><feBlend in2="BackgroundImageFix" result="effect1_dropShadow_518_7920"/><feColorMatrix in="SourceAlpha" values="0 0 0 0 0 0 0 0 0 0 0 0 0 0 0 0 0 0 127 0" result="hardAlpha"/><feMorphology radius="3" in="SourceAlpha" result="effect2_dropShadow_518_7920"/><feOffset dy="10"/><feGaussianBlur stdDeviation="7.5"/><feColorMatrix values="0 0 0 0 0.407843 0 0 0 0 0.419608 0 0 0 0 0.431373 0 0 0 0.16 0"/><feBlend in2="effect1_dropShadow_518_7920" result="effect2_dropShadow_518_7920"/><feBlend in="SourceGraphic" in2="effect2_dropShadow_518_7920" result="shape"/></filter></defs></svg>