<svg width="41" height="42" fill="none" xmlns="http://www.w3.org/2000/svg"><g filter="url('#filter0_dd_518_7929')"><path d="M26.333 7.25H21.15a1 1 0 0 1-.914-.594l-.662-1.49m6.76 2.084v0c.92 0 1.666.746 1.666 1.667V16.5a2 2 0 0 1-2 2H15a2 2 0 0 1-2-2v-11a2 2 0 0 1 2-2h3.183a1 1 0 0 1 .914.594l.477 1.073m6.76 2.083V6.167a1 1 0 0 0-1-1h-5.76" stroke="#686B6E" stroke-width="1.5" stroke-linecap="round" stroke-linejoin="round"/></g><defs><filter id="filter0_dd_518_7929" x="-1.5" y="-1" width="44" height="44" filterUnits="userSpaceOnUse" color-interpolation-filters="sRGB"><feFlood flood-opacity="0" result="BackgroundImageFix"/><feColorMatrix in="SourceAlpha" values="0 0 0 0 0 0 0 0 0 0 0 0 0 0 0 0 0 0 127 0" result="hardAlpha"/><feMorphology radius="4" in="SourceAlpha" result="effect1_dropShadow_518_7929"/><feOffset dy="4"/><feGaussianBlur stdDeviation="3"/><feColorMatrix values="0 0 0 0 0.407843 0 0 0 0 0.419608 0 0 0 0 0.431373 0 0 0 0.16 0"/><feBlend in2="BackgroundImageFix" result="effect1_dropShadow_518_7929"/><feColorMatrix in="SourceAlpha" values="0 0 0 0 0 0 0 0 0 0 0 0 0 0 0 0 0 0 127 0" result="hardAlpha"/><feMorphology radius="3" in="SourceAlpha" result="effect2_dropShadow_518_7929"/><feOffset dy="10"/><feGaussianBlur stdDeviation="7.5"/><feColorMatrix values="0 0 0 0 0.407843 0 0 0 0 0.419608 0 0 0 0 0.431373 0 0 0 0.16 0"/><feBlend in2="effect1_dropShadow_518_7929" result="effect2_dropShadow_518_7929"/><feBlend in="SourceGraphic" in2="effect2_dropShadow_518_7929" result="shape"/></filter></defs></svg>