<svg width="88" height="20" fill="none" xmlns="http://www.w3.org/2000/svg"><g clip-path="url('#clip0_518_91')"><path d="M44.898 8.182v3.873h24.163c-1.06 1.245-4.245 2.3-9.02 3.009l14.571 2.518C83.102 15.836 88 13.272 88 10.227c0-.709-.286-1.39-.816-2.045H44.898Z" fill="#4285F4"/><path d="m19.736 11.903-3.287.56-11.633 2.019C12.204 17.746 27.346 20 44.897 20c12.122 0 22.285-.89 29.714-2.418L60.04 15.064c-4 .6-9.102.963-15.143.963-11.673 0-21.592-1.754-25.143-4.118l-.018-.006Z" fill="#34A853"/><path d="M4.817 5.518C1.755 6.864 0 8.382 0 10c0 1.618 1.754 3.136 4.816 4.482 0 .009 14.939-2.582 14.939-2.582-.898-.6-1.43-1.236-1.43-1.9 0-.664.532-1.3 1.43-1.9L4.816 5.518Z" fill="#FBBC05"/><path d="M44.898 3.982c6.612 0 12.49.509 17.184 1.49L74.939 2.61C67.143.991 57.02 0 44.898 0 27.347 0 12.204 2.245 4.816 5.518L19.756 8.1c3.55-2.364 13.468-4.118 25.142-4.118Z" fill="#EA4335"/></g><defs><clipPath id="clip0_518_91"><path fill="#fff" d="M0 0h88v20H0z"/></clipPath></defs></svg>