<svg width="24" height="24" fill="none" xmlns="http://www.w3.org/2000/svg"><path d="m13.916 20.268-2.067-1.405a25.364 25.364 0 0 1-6.712-6.712l-1.405-2.067a4.227 4.227 0 0 1 .9-5.714l.903-.702a3.17 3.17 0 0 1 4.585.744l.439.659c.407.61.455 1.392.127 2.048a4.087 4.087 0 0 0 .083 3.813l.165.296a4.731 4.731 0 0 0 1.838 1.838l.296.165a4.087 4.087 0 0 0 3.813.083 2.044 2.044 0 0 1 2.048.127l.659.44a3.17 3.17 0 0 1 .744 4.584l-.702.903a4.227 4.227 0 0 1-5.714.9Z" stroke="#686B6E" stroke-width="1.5" stroke-linecap="round"/></svg>