<svg width="36" height="34" fill="none" xmlns="http://www.w3.org/2000/svg"><path d="m24.084 8.658 9.526 19.058C34.824 30.143 33.059 33 30.345 33h-6.261m0-24.342-2.82-5.64c-1.344-2.69-5.184-2.69-6.529 0L2.39 27.716C1.177 30.143 2.941 33 5.655 33h6.261M24.084 8.658 18 14.743M11.916 33h12.168m-12.168 0-6.084-6.085M24.084 33 11.916 20.829M18 14.743l15.514 15.519M18 14.743l-6.084 6.086m-9.43 9.433 3.346-3.348m0 0 6.084-6.085" stroke="url('#paint0_linear_506_9142')" stroke-width="2" stroke-linecap="round" stroke-linejoin="round"/><defs><linearGradient id="paint0_linear_506_9142" x1="2" y1="33" x2="34" y2="1" gradientUnits="userSpaceOnUse"><stop stop-color="#82DBF7"/><stop offset="1" stop-color="#B6F09C"/></linearGradient></defs></svg>