<svg width="42" height="42" fill="none" xmlns="http://www.w3.org/2000/svg"><g filter="url('#filter0_dd_518_6241')"><path d="M21 18.5h2.922a2 2 0 0 0 1.414-.586l2.578-2.578a2 2 0 0 0 .586-1.414V8.078a2 2 0 0 0-.586-1.414l-2.578-2.578a2 2 0 0 0-1.414-.586h-5.844a2 2 0 0 0-1.414.586l-2.578 2.578a2 2 0 0 0-.586 1.414v5.844a2 2 0 0 0 .586 1.414l2.578 2.578a2 2 0 0 0 1.414.586H21Z" stroke="#82DBF7" stroke-width="1.5" stroke-linecap="round"/></g><defs><filter id="filter0_dd_518_6241" x="-1" y="-1" width="44" height="44" filterUnits="userSpaceOnUse" color-interpolation-filters="sRGB"><feFlood flood-opacity="0" result="BackgroundImageFix"/><feColorMatrix in="SourceAlpha" values="0 0 0 0 0 0 0 0 0 0 0 0 0 0 0 0 0 0 127 0" result="hardAlpha"/><feMorphology radius="4" in="SourceAlpha" result="effect1_dropShadow_518_6241"/><feOffset dy="4"/><feGaussianBlur stdDeviation="3"/><feColorMatrix values="0 0 0 0 0.509804 0 0 0 0 0.858824 0 0 0 0 0.968627 0 0 0 0.16 0"/><feBlend in2="BackgroundImageFix" result="effect1_dropShadow_518_6241"/><feColorMatrix in="SourceAlpha" values="0 0 0 0 0 0 0 0 0 0 0 0 0 0 0 0 0 0 127 0" result="hardAlpha"/><feMorphology radius="3" in="SourceAlpha" result="effect2_dropShadow_518_6241"/><feOffset dy="10"/><feGaussianBlur stdDeviation="7.5"/><feColorMatrix values="0 0 0 0 0.509804 0 0 0 0 0.858824 0 0 0 0 0.968627 0 0 0 0.16 0"/><feBlend in2="effect1_dropShadow_518_6241" result="effect2_dropShadow_518_6241"/><feBlend in="SourceGraphic" in2="effect2_dropShadow_518_6241" result="shape"/></filter></defs></svg>